<svg xmlns="http://www.w3.org/2000/svg" version="1.1" xmlns:xlink="http://www.w3.org/1999/xlink" xmlns:svgjs="http://svgjs.com/svgjs" width="1000" height="1000"><rect width="1000" height="1000" rx="150" ry="150" fill="#ffffff"></rect><g transform="matrix(2,0,0,2,-1.1119155883789062,-10.381500244140625)"><svg xmlns="http://www.w3.org/2000/svg" version="1.1" xmlns:xlink="http://www.w3.org/1999/xlink" xmlns:svgjs="http://svgjs.com/svgjs" width="500" height="500"><svg xmlns="http://www.w3.org/2000/svg" xmlns:xlink="http://www.w3.org/1999/xlink" width="500" zoomAndPan="magnify" viewBox="0 0 375 374.999991" height="500" preserveAspectRatio="xMidYMid meet" version="1.0"><defs><g></g></defs><g fill="#42b883" fill-opacity="1"><g transform="translate(79.505251, 161.200182)"><g><path d="M 31.078125 0 L 2.640625 -96.828125 L 14.28125 -96.828125 L 32.59375 -34.265625 L 37.453125 -9.703125 L 38.84375 -9.703125 L 43.703125 -34.265625 L 62.140625 -96.828125 L 73.515625 -96.828125 L 44.9375 0 Z M 31.078125 0 "></path></g></g></g><g fill="#42b883" fill-opacity="1"><g transform="translate(155.659726, 161.200182)"><g><path d="M 50.078125 -11.65625 L 48.6875 -11.65625 C 47.300781 -7.21875 45.148438 -3.882812 42.234375 -1.65625 C 39.328125 0.5625 35.375 1.671875 30.375 1.671875 C 24 1.671875 18.984375 -0.5 15.328125 -4.84375 C 11.671875 -9.195312 9.84375 -15.90625 9.84375 -24.96875 L 9.84375 -71.578125 L 20.390625 -71.578125 L 20.390625 -25.65625 C 20.390625 -19.925781 21.566406 -15.535156 23.921875 -12.484375 C 26.285156 -9.429688 29.914062 -7.90625 34.8125 -7.90625 C 39.070312 -7.90625 42.679688 -9.195312 45.640625 -11.78125 C 48.597656 -14.375 50.078125 -18.03125 50.078125 -22.75 L 50.078125 -71.578125 L 60.625 -71.578125 L 60.625 0 L 50.078125 0 Z M 50.078125 -11.65625 "></path></g></g></g><g fill="#42b883" fill-opacity="1"><g transform="translate(226.82047, 161.200182)"><g><path d="M 34.953125 1.671875 C 30.796875 1.671875 26.910156 0.976562 23.296875 -0.40625 C 19.691406 -1.800781 16.59375 -4.023438 14 -7.078125 C 11.414062 -10.128906 9.382812 -14.007812 7.90625 -18.71875 C 6.425781 -23.4375 5.6875 -29.128906 5.6875 -35.796875 C 5.6875 -42.453125 6.425781 -48.132812 7.90625 -52.84375 C 9.382812 -57.5625 11.414062 -61.445312 14 -64.5 C 16.59375 -67.550781 19.691406 -69.769531 23.296875 -71.15625 C 26.910156 -72.550781 30.796875 -73.25 34.953125 -73.25 C 39.117188 -73.25 42.9375 -72.550781 46.40625 -71.15625 C 49.875 -69.769531 52.804688 -67.550781 55.203125 -64.5 C 57.609375 -61.445312 59.484375 -57.5625 60.828125 -52.84375 C 62.171875 -48.132812 62.84375 -42.453125 62.84375 -35.796875 L 62.84375 -33.15625 L 16.921875 -33.15625 L 16.921875 -28.578125 C 16.921875 -21.546875 18.515625 -16.296875 21.703125 -12.828125 C 24.898438 -9.359375 29.316406 -7.625 34.953125 -7.625 C 39.765625 -7.625 43.695312 -8.664062 46.75 -10.75 C 49.800781 -12.832031 52.207031 -15.953125 53.96875 -20.109375 L 61.171875 -14.84375 C 58.953125 -9.9375 55.691406 -5.957031 51.390625 -2.90625 C 47.085938 0.144531 41.609375 1.671875 34.953125 1.671875 Z M 34.953125 -64.359375 C 29.222656 -64.359375 24.785156 -62.554688 21.640625 -58.953125 C 18.492188 -55.347656 16.921875 -50.03125 16.921875 -43 L 16.921875 -41.203125 L 51.609375 -41.203125 L 51.609375 -43 C 51.609375 -57.238281 46.054688 -64.359375 34.953125 -64.359375 Z M 34.953125 -64.359375 "></path></g></g></g><g fill="#35495e" fill-opacity="1"><g transform="translate(52.388066, 298.450173)"><g><path d="M 31.21875 -62.84375 L 22.75 -82.8125 L 21.359375 -82.8125 L 22.328125 -62.84375 L 22.328125 0 L 11.515625 0 L 11.515625 -96.828125 L 25.109375 -96.828125 L 57.296875 -33.984375 L 65.75 -14.015625 L 67.140625 -14.015625 L 66.171875 -33.984375 L 66.171875 -96.828125 L 76.984375 -96.828125 L 76.984375 0 L 63.390625 0 Z M 31.21875 -62.84375 "></path></g></g></g><g fill="#35495e" fill-opacity="1"><g transform="translate(140.74946, 298.450173)"><g><path d="M 10.546875 -71.578125 L 21.078125 -71.578125 L 21.078125 -59.921875 L 22.46875 -59.921875 C 23.851562 -64.640625 26.09375 -68.039062 29.1875 -70.125 C 32.289062 -72.207031 36.0625 -73.25 40.5 -73.25 C 44.757812 -73.25 48.503906 -72.367188 51.734375 -70.609375 C 54.972656 -68.847656 57.703125 -66.347656 59.921875 -63.109375 C 62.140625 -59.878906 63.800781 -55.953125 64.90625 -51.328125 C 66.019531 -46.703125 66.578125 -41.523438 66.578125 -35.796875 C 66.578125 -30.054688 66.019531 -24.875 64.90625 -20.25 C 63.800781 -15.625 62.140625 -11.691406 59.921875 -8.453125 C 57.703125 -5.222656 54.972656 -2.726562 51.734375 -0.96875 C 48.503906 0.789062 44.757812 1.671875 40.5 1.671875 C 36.0625 1.671875 32.289062 0.628906 29.1875 -1.453125 C 26.09375 -3.535156 23.851562 -6.9375 22.46875 -11.65625 L 21.078125 -11.65625 L 21.078125 27.75 L 10.546875 27.75 Z M 37.3125 -7.765625 C 43.132812 -7.765625 47.570312 -9.59375 50.625 -13.25 C 53.675781 -16.90625 55.203125 -22.015625 55.203125 -28.578125 L 55.203125 -43 C 55.203125 -49.570312 53.675781 -54.679688 50.625 -58.328125 C 47.570312 -61.984375 43.132812 -63.8125 37.3125 -63.8125 C 35.09375 -63.8125 32.988281 -63.488281 31 -62.84375 C 29.007812 -62.195312 27.296875 -61.269531 25.859375 -60.0625 C 24.429688 -58.863281 23.273438 -57.429688 22.390625 -55.765625 C 21.515625 -54.097656 21.078125 -52.25 21.078125 -50.21875 L 21.078125 -21.359375 C 21.078125 -19.328125 21.515625 -17.476562 22.390625 -15.8125 C 23.273438 -14.144531 24.429688 -12.707031 25.859375 -11.5 C 27.296875 -10.300781 29.007812 -9.378906 31 -8.734375 C 32.988281 -8.085938 35.09375 -7.765625 37.3125 -7.765625 Z M 37.3125 -7.765625 "></path></g></g></g><g fill="#35495e" fill-opacity="1"><g transform="translate(213.436067, 298.450173)"><g><path d="M 10.546875 0 L 10.546875 -71.578125 L 21.078125 -71.578125 L 21.078125 -59.921875 L 22.46875 -59.921875 C 23.851562 -64.359375 25.882812 -67.6875 28.5625 -69.90625 C 31.25 -72.132812 35.046875 -73.25 39.953125 -73.25 C 44.390625 -73.25 48.15625 -72.160156 51.25 -69.984375 C 54.351562 -67.804688 56.691406 -64.453125 58.265625 -59.921875 L 59.65625 -59.921875 C 61.132812 -64.359375 63.441406 -67.6875 66.578125 -69.90625 C 69.722656 -72.132812 73.882812 -73.25 79.0625 -73.25 C 85.164062 -73.25 90.066406 -71.070312 93.765625 -66.71875 C 97.472656 -62.375 99.328125 -55.671875 99.328125 -46.609375 L 99.328125 0 L 88.78125 0 L 88.78125 -45.921875 C 88.78125 -51.648438 87.644531 -56.039062 85.375 -59.09375 C 83.113281 -62.144531 79.625 -63.671875 74.90625 -63.671875 C 70.75 -63.671875 67.257812 -62.375 64.4375 -59.78125 C 61.613281 -57.195312 60.203125 -53.546875 60.203125 -48.828125 L 60.203125 0 L 49.65625 0 L 49.65625 -45.921875 C 49.65625 -51.648438 48.519531 -56.039062 46.25 -59.09375 C 43.988281 -62.144531 40.503906 -63.671875 35.796875 -63.671875 C 31.628906 -63.671875 28.132812 -62.375 25.3125 -59.78125 C 22.488281 -57.195312 21.078125 -53.546875 21.078125 -48.828125 L 21.078125 0 Z M 10.546875 0 "></path></g></g></g></svg></svg></g></svg>